<svg xmlns="http://www.w3.org/2000/svg" xmlns:xlink="http://www.w3.org/1999/xlink" version="1.1" width="256" height="256" viewBox="0 0 256 256" xml:space="preserve">

<defs>
</defs>
<g style="stroke: none; stroke-width: 0; stroke-dasharray: none; stroke-linecap: butt; stroke-linejoin: miter; stroke-miterlimit: 10; fill: none; fill-rule: nonzero; opacity: 1;" transform="translate(1.4065934065934016 1.4065934065934016) scale(2.81 2.81)" >
	<path d="M 83.738 46.061 c -0.226 0 -0.455 -0.039 -0.68 -0.12 l -21.576 -7.8 c -0.752 -0.272 -1.27 -0.965 -1.316 -1.764 s 0.386 -1.547 1.101 -1.906 c 8.426 -4.219 17.392 -6.562 26.646 -6.964 c 1.095 -0.044 2.037 0.808 2.085 1.911 c 0.048 1.104 -0.808 2.037 -1.911 2.085 c -7.099 0.308 -14.017 1.834 -20.63 4.544 l 16.961 6.131 c 1.039 0.375 1.577 1.522 1.201 2.561 C 85.325 45.554 84.557 46.061 83.738 46.061 z" style="stroke: none; stroke-width: 1; stroke-dasharray: none; stroke-linecap: butt; stroke-linejoin: miter; stroke-miterlimit: 10; fill: rgb(0,0,0); fill-rule: nonzero; opacity: 1;" transform=" matrix(1 0 0 1 0 0) " stroke-linecap="round" />
	<path d="M 46.89 86.164 c -5.49 0 -10.652 -2.426 -14.163 -6.656 c -0.706 -0.85 -0.588 -2.111 0.262 -2.816 c 0.851 -0.704 2.112 -0.588 2.816 0.262 c 2.749 3.312 6.789 5.211 11.085 5.211 c 4.297 0 8.336 -1.899 11.084 -5.211 c 0.706 -0.85 1.966 -0.966 2.816 -0.262 c 0.85 0.705 0.967 1.966 0.262 2.816 C 57.542 83.738 52.38 86.164 46.89 86.164 z" style="stroke: none; stroke-width: 1; stroke-dasharray: none; stroke-linecap: butt; stroke-linejoin: miter; stroke-miterlimit: 10; fill: rgb(0,0,0); fill-rule: nonzero; opacity: 1;" transform=" matrix(1 0 0 1 0 0) " stroke-linecap="round" />
	<path d="M 86.892 21.349 c -0.481 0 -0.965 -0.173 -1.349 -0.524 c -3.282 -3 -7.539 -4.653 -11.988 -4.653 c -4.442 0 -8.694 1.647 -11.975 4.639 c -0.816 0.747 -2.081 0.686 -2.825 -0.13 c -0.744 -0.816 -0.687 -2.081 0.13 -2.825 c 4.019 -3.665 9.229 -5.684 14.67 -5.684 c 5.45 0 10.666 2.024 14.688 5.701 c 0.815 0.745 0.872 2.01 0.127 2.826 C 87.975 21.129 87.434 21.349 86.892 21.349 z" style="stroke: none; stroke-width: 1; stroke-dasharray: none; stroke-linecap: butt; stroke-linejoin: miter; stroke-miterlimit: 10; fill: rgb(0,0,0); fill-rule: nonzero; opacity: 1;" transform=" matrix(1 0 0 1 0 0) " stroke-linecap="round" />
	<circle cx="20.229" cy="40.549" r="20.229" style="stroke: none; stroke-width: 1; stroke-dasharray: none; stroke-linecap: butt; stroke-linejoin: miter; stroke-miterlimit: 10; fill: rgb(0,0,0); fill-rule: nonzero; opacity: 1;" transform="  matrix(1 0 0 1 0 0) "/>
	<circle cx="20.232" cy="31.622" r="6.752" style="stroke: none; stroke-width: 1; stroke-dasharray: none; stroke-linecap: butt; stroke-linejoin: miter; stroke-miterlimit: 10; fill: rgb(255,255,255); fill-rule: nonzero; opacity: 1;" transform="  matrix(1 0 0 1 0 0) "/>
	<path d="M 33.571 13.013 c -0.482 0 -0.965 -0.173 -1.349 -0.524 c -3.283 -3 -7.541 -4.653 -11.989 -4.653 c -4.442 0 -8.695 1.647 -11.975 4.639 c -0.815 0.745 -2.082 0.686 -2.826 -0.13 c -0.744 -0.816 -0.686 -2.081 0.13 -2.826 c 4.019 -3.665 9.229 -5.683 14.67 -5.683 c 5.45 0 10.666 2.024 14.688 5.701 c 0.815 0.745 0.873 2.01 0.127 2.825 C 34.653 12.793 34.113 13.013 33.571 13.013 z" style="stroke: none; stroke-width: 1; stroke-dasharray: none; stroke-linecap: butt; stroke-linejoin: miter; stroke-miterlimit: 10; fill: rgb(0,0,0); fill-rule: nonzero; opacity: 1;" transform=" matrix(1 0 0 1 0 0) " stroke-linecap="round" />
</g>
</svg>